<svg width="1600" height="440" viewBox="0 0 1600 440" fill="none" xmlns="http://www.w3.org/2000/svg">
  <defs>
    <clipPath id="cmdClip">
      <rect x="34" y="241" width="0" height="24">
        <animate attributeName="width" values="0;0;92;92" keyTimes="0;0.06;0.18;1" dur="12s" repeatCount="indefinite"/>
      </rect>
    </clipPath>
    <clipPath id="line1Clip">
      <rect x="34" y="272" width="0" height="22">
        <animate attributeName="width" values="0;0;180;180" keyTimes="0;0.2;0.3;1" dur="12s" repeatCount="indefinite"/>
      </rect>
    </clipPath>
    <clipPath id="line2Clip">
      <rect x="34" y="296" width="0" height="22">
        <animate attributeName="width" values="0;0;360;360" keyTimes="0;0.3;0.43;1" dur="12s" repeatCount="indefinite"/>
      </rect>
    </clipPath>
    <clipPath id="line3Clip">
      <rect x="34" y="320" width="0" height="22">
        <animate attributeName="width" values="0;0;310;310" keyTimes="0;0.42;0.55;1" dur="12s" repeatCount="indefinite"/>
      </rect>
    </clipPath>
    <clipPath id="line4Clip">
      <rect x="34" y="344" width="0" height="22">
        <animate attributeName="width" values="0;0;340;340" keyTimes="0;0.54;0.67;1" dur="12s" repeatCount="indefinite"/>
      </rect>
    </clipPath>
    <clipPath id="line5Clip">
      <rect x="34" y="368" width="0" height="22">
        <animate attributeName="width" values="0;0;610;610" keyTimes="0;0.66;0.82;1" dur="12s" repeatCount="indefinite"/>
      </rect>
    </clipPath>
    <clipPath id="line6Clip">
      <rect x="34" y="392" width="0" height="22">
        <animate attributeName="width" values="0;0;330;330" keyTimes="0;0.78;0.92;1" dur="12s" repeatCount="indefinite"/>
      </rect>
    </clipPath>
    <style>
      .mono { font-family: "JetBrains Mono", "SFMono-Regular", Consolas, Menlo, monospace; }
      .bg { fill: #fffefe; }
      .black { fill: #171717; }
      .muted { fill: #a8a5a2; }
      .soft { fill: #c5c0bd; }
      .pink { fill: #8f8f8f; }
      .green { fill: #36bd48; }
      .cyan { fill: #17a2b8; }
      .line { stroke: #9f9f9f; stroke-width: 1.2; }
      .thin { stroke: #b8b8b8; stroke-width: 1; }
      .term { font-size: 14px; font-weight: 650; }
      .body { font-size: 14px; font-weight: 520; }
      .small { font-size: 13px; font-weight: 600; }
      .tiny { font-size: 12px; font-weight: 600; }
      .avatarLight { fill: #d9d6d2; }
      .avatarMid { fill: #9b9690; }
      .avatarDark { fill: #232323; }
      .avatarSoft { fill: #77726d; }
    </style>
  </defs>

  <rect width="1600" height="420" class="bg"/>

  <text x="8" y="18" class="mono term">
    <tspan class="green">➜</tspan>
    <tspan class="cyan">  1ue-profile </tspan>
    <tspan class="green">/about</tspan>
  </text>

  <rect x="12" y="34" width="1576" height="166" rx="4" fill="#fffefe" stroke="#9f9f9f" stroke-width="1.2"/>
  <rect x="42" y="25" width="168" height="22" fill="#fffefe"/>
  <text x="52" y="42" class="mono small pink">1ue Code</text>
  <text x="134" y="42" class="mono small muted">v0.1ue</text>

  <line x1="330" y1="48" x2="330" y2="188" class="line" opacity="0.75"/>

  <text x="96" y="80" class="mono body black">Welcome back!</text>

  <g transform="translate(148 88) scale(1.9)" shape-rendering="crispEdges">
    <rect x="8" y="0" width="3" height="7" class="avatarDark"/>
    <rect x="7" y="7" width="4" height="5" class="avatarDark"/>
    <rect x="6" y="12" width="5" height="7" class="avatarLight"/>
    <rect x="7" y="19" width="4" height="5" class="avatarMid"/>
    <rect x="9" y="7" width="2" height="9" class="avatarLight"/>

    <rect x="25" y="10" width="8" height="3" class="avatarLight"/>
    <rect x="33" y="9" width="6" height="3" class="avatarDark"/>
    <rect x="22" y="13" width="13" height="4" class="avatarLight"/>
    <rect x="34" y="12" width="3" height="2" class="avatarDark"/>
    <rect x="20" y="16" width="7" height="3" class="avatarMid"/>

    <rect x="10" y="17" width="16" height="4" class="avatarLight"/>
    <rect x="8" y="21" width="20" height="5" class="avatarLight"/>
    <rect x="7" y="26" width="22" height="7" class="avatarLight"/>
    <rect x="9" y="33" width="18" height="4" class="avatarMid"/>
    <rect x="12" y="37" width="12" height="2" class="avatarSoft"/>

    <rect x="6" y="26" width="3" height="7" class="avatarSoft"/>
    <rect x="27" y="25" width="4" height="8" class="avatarSoft"/>
    <rect x="7" y="22" width="2" height="3" class="avatarDark"/>
    <rect x="29" y="21" width="2" height="3" class="avatarDark"/>

    <rect x="12" y="24" width="4" height="1" class="avatarDark"/>
    <rect x="11" y="25" width="3" height="1" class="avatarDark"/>
    <rect x="20" y="24" width="5" height="1" class="avatarDark"/>
    <rect x="20" y="25" width="4" height="1" class="avatarDark"/>
    <rect x="17" y="26" width="2" height="1" class="avatarDark"/>

    <rect x="16" y="29" width="6" height="3" class="avatarDark"/>
    <rect x="17" y="32" width="5" height="3" class="avatarDark"/>
    <rect x="19" y="34" width="4" height="3" class="avatarSoft"/>
  </g>

  <text x="54" y="174" class="mono small muted">1ue · Security Research</text>
  <text x="54" y="190" class="mono small muted">~/profile</text>

  <text x="346" y="66" class="mono body pink">Tips for getting started</text>
  <text x="346" y="88" class="mono body black">Run /about to print 1ue's profile</text>
  <line x1="346" y1="106" x2="1568" y2="106" class="line"/>

  <text x="346" y="128" class="mono body pink">What's new</text>
  <text x="346" y="148" class="mono body black">Black Hat Asia 2026 speaker: CAST Attack</text>
  <text x="346" y="168" class="mono body black">HackerOne: hackerone.com/1ue</text>
  <text x="346" y="188" class="mono body black">Team: Vidar-Team &amp; El3ctronic</text>

  <text x="22" y="232" class="mono body pink">│ About profile</text>
  <text x="16" y="254" class="mono body black">
    <tspan>› </tspan>
  </text>
  <text x="34" y="254" class="mono body black" clip-path="url(#cmdClip)">/about</text>
  <text x="112" y="254" class="mono body muted">█
    <animate attributeName="opacity" values="1;1;0;0;1" keyTimes="0;0.48;0.5;0.96;1" dur="1s" repeatCount="indefinite"/>
  </text>

  <text x="34" y="286" class="mono body black" clip-path="url(#line1Clip)">
    <tspan class="muted">handle</tspan><tspan>    1ue</tspan>
  </text>
  <text x="34" y="310" class="mono body black" clip-path="url(#line2Clip)">
    <tspan class="muted">team</tspan><tspan>      Vidar-Team · El3ctronic</tspan>
  </text>
  <text x="34" y="334" class="mono body black" clip-path="url(#line3Clip)">
    <tspan class="muted">h1</tspan><tspan>        hackerone.com/1ue</tspan>
  </text>
  <text x="34" y="358" class="mono body black" clip-path="url(#line4Clip)">
    <tspan class="muted">speaker</tspan><tspan>   Black Hat Asia 2026</tspan>
  </text>
  <text x="34" y="382" class="mono body black" clip-path="url(#line5Clip)">
    <tspan class="muted">topic</tspan><tspan>     CAST Attack: A New Threat Posed by Ghost Bits in Java</tspan>
  </text>
  <text x="34" y="406" class="mono body black" clip-path="url(#line6Clip)">
    <tspan class="muted">mode</tspan><tspan>      no guess. only proof.</tspan>
  </text>

  <line x1="8" y1="216" x2="1592" y2="216" class="thin"/>
  <line x1="8" y1="414" x2="1592" y2="414" class="thin"/>
  <text x="22" y="434" class="mono small muted">? for shortcuts · / for commands</text>
  <text x="1450" y="434" class="mono small muted">Auto-updating...  ● ready</text>
</svg>
